<svg width="64" height="64" viewBox="0 0 64 64" fill="none" xmlns="http://www.w3.org/2000/svg">
<g clip-path="url(#clip0_8_7)">
<rect width="64" height="64" rx="8" fill="#FF6500"/>
<path d="M47.25 51.9688C47.5208 52.4479 47.6562 52.9167 47.6562 53.375C47.6562 53.9167 47.4896 54.4271 47.1562 54.9062C46.8229 55.3854 46.3542 55.8542 45.75 56.3125C45.1667 56.7708 44.4688 57.2083 43.6562 57.625C42.8438 58.0417 41.9479 58.4375 40.9688 58.8125C39.3229 59.4375 37.9375 59.8333 36.8125 60C35.7083 60.1667 34.875 60.25 34.3125 60.25H34.0312V64.5938H29.7188V60.25H29.5312C28.9688 60.25 28.125 60.1667 27 60C25.8958 59.8333 24.5208 59.4375 22.875 58.8125C21.875 58.4375 20.9583 58.0417 20.125 57.625C19.2917 57.2083 18.5729 56.7708 17.9688 56.3125C17.3854 55.8542 16.9271 55.3854 16.5938 54.9062C16.2604 54.4271 16.0938 53.9167 16.0938 53.375C16.0938 52.9167 16.2292 52.4479 16.5 51.9688C16.7083 51.9479 16.9062 51.9375 17.0938 51.9375C17.3021 51.9375 17.5 51.9375 17.6875 51.9375C18.9792 51.9375 20.1562 52.0521 21.2188 52.2812C22.3021 52.5104 23.2917 52.8229 24.1875 53.2188C25.1042 53.6146 25.9375 54.0833 26.6875 54.625C27.4583 55.1667 28.1667 55.75 28.8125 56.375C28.9792 56.5625 29.1354 56.7396 29.2812 56.9062C29.4479 57.0729 29.5938 57.2396 29.7188 57.4062V46.5625C29.4271 45.5625 29.1771 44.5208 28.9688 43.4375C28.1146 44.7083 27.2708 45.8438 26.4375 46.8438C25.625 47.8438 24.8542 48.6354 24.125 49.2188L23.0312 49.9688L22.875 48.75C22.8333 48.4583 22.8021 48.1562 22.7812 47.8438C22.7604 47.5104 22.75 47.1667 22.75 46.8125C22.75 45.9375 22.8021 45 22.9062 44C23.0312 42.9792 23.2083 41.8958 23.4375 40.75C22.0833 41.6875 20.8021 42.4688 19.5938 43.0938C18.4062 43.7188 17.3229 44.1458 16.3438 44.375L15.0312 44.6875L15.4375 43.4375C15.6667 42.5 16.0729 41.4688 16.6562 40.3438C17.2396 39.2188 17.9583 38 18.8125 36.6875C17.6875 36.9167 16.6354 37.1042 15.6562 37.25C14.6771 37.375 13.7604 37.4375 12.9062 37.4375C12.5938 37.4375 12.3021 37.4271 12.0312 37.4062C11.7604 37.3854 11.5104 37.375 11.2812 37.375L9.96875 37.1562L10.8125 36.1562C11.3958 35.3438 12.1875 34.5 13.1875 33.625C14.2083 32.75 15.3958 31.8438 16.75 30.9062C15.125 30.5521 13.6771 30.1771 12.4062 29.7812C11.1562 29.3854 10.0938 28.9479 9.21875 28.4688L8.0625 27.8438L9.21875 27.1562C10.0104 26.6771 11.0104 26.2396 12.2188 25.8438C13.4271 25.4271 14.8021 25.0625 16.3438 24.75C15.0729 23.8958 13.9375 23.0625 12.9375 22.25C11.9583 21.4167 11.1771 20.6146 10.5938 19.8438L9.8125 18.8438L11.0625 18.6875C11.3542 18.6458 11.6667 18.6146 12 18.5938C12.3333 18.5729 12.6771 18.5625 13.0312 18.5625C13.9062 18.5625 14.8333 18.625 15.8125 18.75C16.8125 18.8542 17.8854 19.0104 19.0312 19.2188C18.0938 17.8438 17.3333 16.5521 16.75 15.3438C16.1667 14.1354 15.7292 13.0729 15.4375 12.1562L15.0312 10.9375L16.3438 11.25C17.2812 11.4792 18.3125 11.8854 19.4375 12.4688C20.5625 13.0521 21.7604 13.7708 23.0312 14.625C22.8021 13.4375 22.6354 12.3333 22.5312 11.3125C22.4271 10.2917 22.375 9.36458 22.375 8.53125C22.375 8.40625 22.375 8.27083 22.375 8.125C22.3958 7.97917 22.4062 7.8125 22.4062 7.625C22.4271 7.41667 22.4583 7.16667 22.5 6.875C22.5417 6.58333 22.5938 6.21875 22.6562 5.78125L23.6562 6.53125C24.4896 7.17708 25.3333 8 26.1875 9C27.0417 10 27.9375 11.1771 28.875 12.5312C29.1875 10.9062 29.5521 9.46875 29.9688 8.21875C30.4062 6.94792 30.8646 5.875 31.3438 5L31.9688 3.84375L32.6562 5C33.1562 5.875 33.5938 6.91667 33.9688 8.125C34.3646 9.3125 34.7188 10.6562 35.0312 12.1562C35.8854 10.8438 36.7188 9.69792 37.5312 8.71875C38.3438 7.71875 39.125 6.94792 39.875 6.40625L40.9688 5.625L41.0938 6.84375C41.1562 7.53125 41.1875 8.20833 41.1875 8.875C41.1875 9.79167 41.1354 10.7292 41.0312 11.6875C40.9271 12.6458 40.7708 13.6979 40.5625 14.8438C41.9167 13.9062 43.1875 13.1354 44.375 12.5312C45.5833 11.9062 46.6771 11.4792 47.6562 11.25L48.9375 10.9375L48.5625 12.25C48.3333 13.1458 47.9271 14.1562 47.3438 15.2812C46.7604 16.3854 46.0417 17.5729 45.1875 18.8438C46.3125 18.6146 47.3646 18.4479 48.3438 18.3438C49.3229 18.2188 50.2396 18.1562 51.0938 18.1562C51.4062 18.1562 51.6979 18.1562 51.9688 18.1562C52.2396 18.1562 52.4896 18.1771 52.7188 18.2188L54.0312 18.375L53.1562 19.5938C52.5729 20.4062 51.7812 21.2292 50.7812 22.0625C49.7812 22.875 48.6042 23.75 47.25 24.6875C48.875 25 50.3229 25.3646 51.5938 25.7812C52.8646 26.1979 53.9271 26.6562 54.7812 27.1562L55.9375 27.8438L54.7812 28.4688C53.9896 28.9271 52.9792 29.3646 51.75 29.7812C50.5208 30.1771 49.1562 30.5312 47.6562 30.8438C48.9271 31.6979 50.0521 32.5417 51.0312 33.375C52.0312 34.1875 52.8229 34.9583 53.4062 35.6875L54.1875 36.6875L52.9375 36.9062C52.6458 36.9479 52.3229 36.9896 51.9688 37.0312C51.6354 37.0521 51.2917 37.0625 50.9375 37.0625C50.0833 37.0625 49.1458 37 48.125 36.875C47.125 36.7292 46.0625 36.5625 44.9375 36.375C45.875 37.7708 46.6458 39.0625 47.25 40.25C47.8542 41.4167 48.2917 42.4792 48.5625 43.4375L48.9375 44.6875L47.6562 44.375C46.7188 44.1458 45.6875 43.7396 44.5625 43.1562C43.4375 42.5729 42.2396 41.8542 40.9688 41C41.1771 42.1667 41.3229 43.25 41.4062 44.25C41.5104 45.2292 41.5625 46.1458 41.5625 47C41.5625 47.2708 41.5521 47.5417 41.5312 47.8125C41.5312 48.0625 41.5208 48.3021 41.5 48.5312L41.4062 49.8125L40.3438 49.0625C39.5729 48.4375 38.7396 47.6146 37.8438 46.5938C36.9688 45.5729 36.0625 44.375 35.125 43C34.9583 43.8125 34.7812 44.5833 34.5938 45.3125C34.4271 46.0417 34.2396 46.7292 34.0312 47.375V57.5625C34.3021 57.1667 34.6562 56.7604 35.0938 56.3438C35.7188 55.7188 36.4062 55.1354 37.1562 54.5938C37.9062 54.0521 38.7292 53.5938 39.625 53.2188C40.5208 52.8229 41.5 52.5104 42.5625 52.2812C43.6458 52.0521 44.8229 51.9375 46.0938 51.9375C46.2812 51.9375 46.4688 51.9375 46.6562 51.9375C46.8438 51.9375 47.0417 51.9479 47.25 51.9688ZM31.9688 43.0625C34.0729 43.0625 36.0521 42.6667 37.9062 41.875C39.7604 41.0625 41.375 39.9688 42.75 38.5938C44.1458 37.2188 45.2396 35.6146 46.0312 33.7812C46.8438 31.9271 47.25 29.9479 47.25 27.8438C47.25 25.7188 46.8438 23.7292 46.0312 21.875C45.2396 20.0208 44.1458 18.4062 42.75 17.0312C41.375 15.6354 39.7604 14.5417 37.9062 13.75C36.0521 12.9375 34.0729 12.5312 31.9688 12.5312C29.8646 12.5312 27.8854 12.9375 26.0312 13.75C24.1979 14.5417 22.5938 15.6354 21.2188 17.0312C19.8438 18.4062 18.75 20.0208 17.9375 21.875C17.1458 23.7292 16.75 25.7188 16.75 27.8438C16.75 29.9479 17.1458 31.9271 17.9375 33.7812C18.75 35.6146 19.8438 37.2188 21.2188 38.5938C22.5938 39.9688 24.1979 41.0625 26.0312 41.875C27.8854 42.6667 29.8646 43.0625 31.9688 43.0625ZM36.9688 29.9062L34.8125 27.8438L36.9688 25.6875L39.0938 27.8438L36.9688 29.9062ZM31.8125 24.8438L29.875 22.8438L31.9688 20.6875L33.9688 22.6875L31.8125 24.8438ZM42.0938 30.8438L43.6562 32.375C43.4479 32.875 43.2188 33.3646 42.9688 33.8438C42.7396 34.3021 42.4479 34.7396 42.0938 35.1562L39.9688 33L42.0938 30.8438ZM26.8125 19.8438L24.6562 17.625C25.0729 17.3125 25.5104 17.0417 25.9688 16.8125C26.4479 16.5625 26.9375 16.3438 27.4375 16.1562L28.9688 17.6875L26.8125 19.8438ZM40.0312 22.625L42.1875 20.4688C42.5 20.8854 42.7708 21.3229 43 21.7812C43.2292 22.2396 43.4479 22.7188 43.6562 23.2188L42.0938 24.75L40.0312 22.625ZM31.9688 34.8438L29.9688 32.8438L31.8125 30.9062L33.875 33L31.9688 34.8438ZM28.9688 37.9062L27.4375 39.4375C26.9375 39.2917 26.4688 39.0938 26.0312 38.8438C25.6146 38.5938 25.2083 38.3333 24.8125 38.0625L26.9688 35.9062L28.9688 37.9062ZM23.875 32.8438L21.75 35C21.4583 34.6042 21.1979 34.1875 20.9688 33.75C20.7604 33.3125 20.5521 32.8542 20.3438 32.375L21.875 30.8438L23.875 32.8438ZM26.875 29.75L24.875 27.75L26.8125 25.9062L28.7188 27.9062L26.875 29.75ZM35.0312 17.6875L36.5625 16.1562C37.0417 16.3229 37.4896 16.5208 37.9062 16.75C38.3229 16.9583 38.7188 17.1979 39.0938 17.4688L36.9688 19.5312L35.0312 17.6875ZM36.9688 36.0625L39.0312 38.1562C38.6354 38.4271 38.2292 38.6771 37.8125 38.9062C37.3958 39.1146 36.9792 39.2917 36.5625 39.4375L35.0312 37.9062L36.9688 36.0625ZM21.875 24.75L20.3438 23.2188C20.5104 22.7604 20.6979 22.3333 20.9062 21.9375C21.1354 21.5417 21.3646 21.1562 21.5938 20.7812L23.7188 22.8438L21.875 24.75Z" fill="#FFFFE0"/>
</g>
<defs>
<clipPath id="clip0_8_7">
<rect width="64" height="64" rx="8" fill="white"/>
</clipPath>
</defs>
</svg>
